REM DIRINDEX 1\2\6,1\2\7,1\2\8,1\2\9,1\3\10,1\3\11,1\4\12,1\4\13,1\4\14,1\5\15,1\5\16,1\5\17
REM DIRNAME cjc029,folder01,folder02,folder03,folder04,folder05,folder06,folder07,folder08,folder09,folder10,folder11,folder12,folder13,folder14,folder15,folder16
TITLE ""
FILE "1400_3_sec14_1332_1347.mp3" MP3
  TRACK 01 AUDIO
    TITLE "0:"
    INDEX 01 00:00:00
  TRACK 02 AUDIO
    TITLE "17:cjc029_7105"
    INDEX 01 00:00:15
  TRACK 03 AUDIO
    TITLE "0:"
    INDEX 01 00:02:16
  TRACK 04 AUDIO
    TITLE "16:cjc029_7106"
    INDEX 01 00:02:24
  TRACK 05 AUDIO
    TITLE "0:"
    INDEX 01 00:03:23
  TRACK 06 AUDIO
    TITLE "17:cjc029_7107"
    INDEX 01 00:04:15
  TRACK 07 AUDIO
    TITLE "0:"
    INDEX 01 00:06:57
  TRACK 08 AUDIO
    TITLE "16:cjc029_7108"
    INDEX 01 00:06:63
  TRACK 09 AUDIO
    TITLE "0:"
    INDEX 01 00:07:66
  TRACK 10 AUDIO
    TITLE "17:cjc029_7109"
    INDEX 01 00:08:48
  TRACK 11 AUDIO
    TITLE "0:"
    INDEX 01 00:09:47
  TRACK 12 AUDIO
    TITLE "16:cjc029_7110"
    INDEX 01 00:09:53
  TRACK 13 AUDIO
    TITLE "0:"
    INDEX 01 00:11:07
  TRACK 14 AUDIO
    TITLE "17:cjc029_7111"
    INDEX 01 00:11:64
  TRACK 15 AUDIO
    TITLE "0:"
    INDEX 01 00:13:57
  TRACK 16 AUDIO
    TITLE "16:cjc029_7112"
    INDEX 01 00:13:63
  TRACK 17 AUDIO
    TITLE "0:"
    INDEX 01 00:14:60
  TRACK 18 AUDIO
    TITLE "17:cjc029_7113"
    INDEX 01 00:15:44
  TRACK 19 AUDIO
    TITLE "0:"
    INDEX 01 00:17:10
  TRACK 20 AUDIO
    TITLE "16:cjc029_7114"
    INDEX 01 00:17:16
  TRACK 21 AUDIO
    TITLE "0:"
    INDEX 01 00:18:25
  TRACK 22 AUDIO
    TITLE "17:cjc029_7115"
    INDEX 01 00:19:07
  TRACK 23 AUDIO
    TITLE "0:"
    INDEX 01 00:21:23
  TRACK 24 AUDIO
    TITLE "16:cjc029_7116"
    INDEX 01 00:21:35
  TRACK 25 AUDIO
    TITLE "0:"
    INDEX 01 00:22:46
  TRACK 26 AUDIO
    TITLE "17:cjc029_7117"
    INDEX 01 00:23:30
  TRACK 27 AUDIO
    TITLE "0:"
    INDEX 01 00:25:27
  TRACK 28 AUDIO
    TITLE "16:cjc029_7118"
    INDEX 01 00:25:33
  TRACK 29 AUDIO
    TITLE "0:"
    INDEX 01 00:26:71
  TRACK 30 AUDIO
    TITLE "17:cjc029_7119"
    INDEX 01 00:27:59
  TRACK 31 AUDIO
    TITLE "0:"
    INDEX 01 00:29:17
  TRACK 32 AUDIO
    TITLE "16:cjc029_7120"
    INDEX 01 00:29:25
  TRACK 33 AUDIO
    TITLE "0:"
    INDEX 01 00:30:42
  TRACK 34 AUDIO
    TITLE "17:cjc029_7121"
    INDEX 01 00:31:31
  TRACK 35 AUDIO
    TITLE "0:"
    INDEX 01 00:32:29
  TRACK 36 AUDIO
    TITLE "16:cjc029_7122"
    INDEX 01 00:32:35
  TRACK 37 AUDIO
    TITLE "0:"
    INDEX 01 00:33:42
  TRACK 38 AUDIO
    TITLE "17:cjc029_7123"
    INDEX 01 00:34:24
  TRACK 39 AUDIO
    TITLE "0:"
    INDEX 01 00:35:47
  TRACK 40 AUDIO
    TITLE "16:cjc029_7124"
    INDEX 01 00:35:57
  TRACK 41 AUDIO
    TITLE "0:"
    INDEX 01 00:36:68
  TRACK 42 AUDIO
    TITLE "17:cjc029_7125"
    INDEX 01 00:37:56
  TRACK 43 AUDIO
    TITLE "0:"
    INDEX 01 00:41:32
  TRACK 44 AUDIO
    TITLE "16:cjc029_7126"
    INDEX 01 00:41:47
  TRACK 45 AUDIO
    TITLE "0:"
    INDEX 01 00:42:68
  TRACK 46 AUDIO
    TITLE "17:cjc029_7127"
    INDEX 01 00:43:54
  TRACK 47 AUDIO
    TITLE "0:"
    INDEX 01 00:45:00
  TRACK 48 AUDIO
    TITLE "16:cjc029_7128"
    INDEX 01 00:45:04
  TRACK 49 AUDIO
    TITLE "0:"
    INDEX 01 00:46:13
  TRACK 50 AUDIO
    TITLE "17:cjc029_7129"
    INDEX 01 00:46:74
  TRACK 51 AUDIO
    TITLE "0:"
    INDEX 01 00:48:32
  TRACK 52 AUDIO
    TITLE "16:cjc029_7130"
    INDEX 01 00:48:44
  TRACK 53 AUDIO
    TITLE "0:"
    INDEX 01 00:49:70
  TRACK 54 AUDIO
    TITLE "17:cjc029_7131"
    INDEX 01 00:50:52
  TRACK 55 AUDIO
    TITLE "0:"
    INDEX 01 00:51:58
  TRACK 56 AUDIO
    TITLE "16:cjc029_7132"
    INDEX 01 00:51:62
  TRACK 57 AUDIO
    TITLE "0:"
    INDEX 01 00:52:71
  TRACK 58 AUDIO
    TITLE "17:cjc029_7133"
    INDEX 01 00:53:57
  TRACK 59 AUDIO
    TITLE "0:"
    INDEX 01 00:55:65
  TRACK 60 AUDIO
    TITLE "16:cjc029_7134"
    INDEX 01 00:55:71
  TRACK 61 AUDIO
    TITLE "0:"
    INDEX 01 00:57:15
  TRACK 62 AUDIO
    TITLE "17:cjc029_7135"
    INDEX 01 00:57:74
  TRACK 63 AUDIO
    TITLE "0:"
    INDEX 01 00:59:24
  TRACK 64 AUDIO
    TITLE "16:cjc029_7136"
    INDEX 01 00:59:30
  TRACK 65 AUDIO
    TITLE "0:"
    INDEX 01 01:00:43
